<svg xmlns="http://www.w3.org/2000/svg" xmlns:xlink="http://www.w3.org/1999/xlink" xml:space="preserve" style="shape-rendering:geometricPrecision;text-rendering:geometricPrecision;image-rendering:optimizeQuality;" viewBox="0 0 3.8674 7.141625" x="0px" y="0px" fill-rule="evenodd" clip-rule="evenodd"><defs><style type="text/css">
   
    .fil0 {fill:black}
   
  </style></defs><g><path class="fil0" d="M1.9337 0.0001c1.068,0 1.9337,0.8656 1.9337,1.9336 0,0.7798 -0.7354,1.7041 -1.142,2.4084 -0.2639,0.4571 -0.5279,0.914 -0.7917,1.3711 -0.2638,-0.4571 -0.5278,-0.914 -0.7917,-1.3711 -0.4066,-0.7043 -1.142,-1.6286 -1.142,-2.4084 0,-1.068 0.8657,-1.9336 1.9337,-1.9336zm0 1.1518c0.4319,0 0.7818,0.3499 0.7818,0.7818 0,0.4319 -0.3499,0.7819 -0.7818,0.7819 -0.4319,0 -0.7818,-0.35 -0.7818,-0.7819 0,-0.4319 0.3499,-0.7818 0.7818,-0.7818z"/></g><text x="0" y="20.7133" fill="#000000" font-size="5px" font-weight="bold" font-family="'Helvetica Neue', Helvetica, Arial-Unicode, Arial, Sans-serif">Created by Raden Situbondo</text><text x="0" y="25.7133" fill="#000000" font-size="5px" font-weight="bold" font-family="'Helvetica Neue', Helvetica, Arial-Unicode, Arial, Sans-serif">from the Noun Project</text></svg>