<svg xmlns:dc="http://purl.org/dc/elements/1.1/" xmlns:cc="http://creativecommons.org/ns#" xmlns:rdf="http://www.w3.org/1999/02/22-rdf-syntax-ns#" xmlns:svg="http://www.w3.org/2000/svg" xmlns="http://www.w3.org/2000/svg" xmlns:sodipodi="http://sodipodi.sourceforge.net/DTD/sodipodi-0.dtd" xmlns:inkscape="http://www.inkscape.org/namespaces/inkscape" version="1.1" x="0px" y="0px" viewBox="0 0 100 125"><g transform="translate(0,-952.36218)"><path d="m 33,960.36211 c -3.324,0 -6,2.676 -6,6 l 0,72.00019 c 0,3.324 2.676,6 6,6 l 34,0 c 3.324,0 6,-2.676 6,-6 l 0,-72.00019 c 0,-3.324 -2.676,-6 -6,-6 z m -2,8 38,0 0,62.00019 -38,0 z m 19,65.00019 c 2.2091,0 4,1.7909 4,4 0,2.2092 -1.7909,4 -4,4 -2.2091,0 -4,-1.7908 -4,-4 0,-2.2091 1.7909,-4 4,-4 z" style="color:#000000;enable-background:accumulate;" fill="#000000" stroke="none" marker="none" visibility="visible" display="inline" overflow="visible"/></g></svg>